<svg width="65" height="65" viewBox="0 0 65 65" fill="none" xmlns="http://www.w3.org/2000/svg">
<rect width="65" height="65" rx="32.5" fill="#4EC3F3"/>
<rect x="0.25" y="0.25" width="64.5" height="64.5" rx="32.25" stroke="black" stroke-opacity="0.2" stroke-width="0.5"/>
<path d="M27.2332 20.3048C29.5771 16.1016 30.7481 14 32.5 14C34.2519 14 35.4229 16.1016 37.7668 20.3048L38.3736 21.3926C39.0396 22.5877 39.3726 23.1853 39.8906 23.5793C40.4086 23.9734 41.056 24.1195 42.351 24.4118L43.5276 24.6782C48.0785 25.7087 50.3521 26.223 50.8941 27.9638C51.4343 29.7028 49.884 31.5177 46.7817 35.1456L45.9788 36.0835C45.0982 37.114 44.6561 37.6301 44.4581 38.2665C44.2602 38.9048 44.3268 39.593 44.46 40.9675L44.5821 42.22C45.0501 47.0615 45.285 49.4813 43.868 50.5561C42.4509 51.6328 40.3198 50.6505 36.0612 48.6895L34.9567 48.1826C33.7469 47.6239 33.1419 47.3463 32.5 47.3463C31.8581 47.3463 31.2531 47.6239 30.0433 48.1826L28.9407 48.6895C24.6802 50.6505 22.5491 51.631 21.1339 50.558C19.715 49.4813 19.9499 47.0615 20.4179 42.22L20.54 40.9694C20.6732 39.593 20.7398 38.9048 20.54 38.2684C20.3439 37.6301 19.9018 37.114 19.0212 36.0854L18.2183 35.1456C15.116 31.5196 13.5657 29.7047 14.1059 27.9638C14.6479 26.223 16.9234 25.7068 21.4743 24.6782L22.6508 24.4118C23.944 24.1195 24.5896 23.9734 25.1094 23.5793C25.6274 23.1853 25.9604 22.5877 26.6264 21.3926L27.2332 20.3048Z" fill="#FFD700"/>
</svg>
